	Plot: A godless man is recruited by a secret organization who works to combat demonic possessions in order to prepare a new generation in the battle against evil forces
Action/horror story centered on a secret organization formed by the Catholic Church to counteract the rising number of cases of demonic possessions across the country. The story follows a young godless man who is being recruited into the cloth in order to prepare a new generation with the tools needed to stop the rise of the ultimate evil; Beelzebub


Director:
Justin Price

Writer:
Justin Price

Stars:
Danny Trejo, Eric Roberts, Rachele Brooke Smith

Genres:
Adventure |  Sci-Fi |  Thriller

Country:
USA

Language:
English


Thanks: PLAYNOW


Format                                   : AVI
Format/Info                              : Audio Video Interleave
File size                                : 609 MiB
Duration                                 : 1h 30mn
Overall bit rate                         : 940 Kbps
Writing application                      : Lavf54.59.103
Writing library                          : VirtualDub build 32842/release

Video
ID                                       : 0
Format                                   : MPEG-4 Visual
Format profile                           : Simple@L3
Format settings, BVOP                    : No
Format settings, QPel                    : No
Format settings, GMC                     : No warppoints
Format settings, Matrix                  : Default (H.263)
Codec ID                                 : XVID
Codec ID/Hint                            : XviD
Duration                                 : 1h 30mn
Bit rate                                 : 801 Kbps
Width                                    : 640 pixels
Height                                   : 264 pixels
Display aspect ratio                     : 2.40:1
Frame rate                               : 25.000 fps
Color space                              : YUV
Chroma subsampling                       : 4:2:0
Bit depth                                : 8 bits
Scan type                                : Progressive
Compression mode                         : Lossy
Bits/(Pixel*Frame)                       : 0.190
Stream size                              : 519 MiB (85%)
Writing library                          : XviD 1.3.0.dev55

Audio
ID                                       : 1
Format                                   : AC-3
Format/Info                              : Audio Coding 3
Mode extension                           : CM (complete main)
Format settings, Endianness              : Big
Codec ID                                 : 2000
Duration                                 : 1h 30mn
Bit rate mode                            : Constant
Bit rate                                 : 128 Kbps
Channel(s)                               : 2 channels
Channel positions                        : Front: L R
Sampling rate                            : 48.0 KHz
Bit depth                                : 16 bits
Compression mode                         : Lossy
Stream size                              : 83.0 MiB (14%)
Alignment                                : Aligned on interleaves
Interleave, duration                     : 32 ms (0.80 video frame)
Interleave, preload duration             : 512 ms

Uploader note:-

Sample is included.